<?xml version="1.0" standalone="no"?>
<!DOCTYPE svg PUBLIC "-//W3C//DTD SVG 20010904//EN"
 "http://www.w3.org/TR/2001/REC-SVG-20010904/DTD/svg10.dtd">
<svg version="1.0" xmlns="http://www.w3.org/2000/svg"
 width="564.000000pt" height="249.000000pt" viewBox="0 0 564.000000 249.000000"
 preserveAspectRatio="xMidYMid meet">

<g transform="translate(0.000000,249.000000) scale(0.100000,-0.100000)"
fill="#000000" stroke="none">
<path d="M800 1590 c-25 -5 -78 -26 -118 -46 -137 -67 -177 -160 -177 -409 0
-289 67 -398 270 -436 67 -13 283 -6 354 11 31 8 47 8 55 0 6 -6 65 -10 146
-10 165 0 194 10 204 68 3 20 11 54 16 75 l11 37 78 0 78 0 19 -87 19 -88 144
-3 c92 -2 148 1 156 8 9 8 15 8 20 0 11 -17 266 -13 303 6 l32 15 0 140 c0
126 2 139 18 139 36 0 45 -20 73 -151 16 -74 31 -140 34 -146 3 -10 41 -13
143 -13 152 0 202 13 202 51 0 11 -16 84 -36 162 -27 109 -42 151 -65 179
l-30 38 37 32 c49 43 64 83 64 169 0 94 -16 145 -60 189 -65 65 -118 75 -400
75 -215 0 -250 -2 -282 -18 l-38 -18 -2 -342 -3 -341 -94 332 c-117 415 -90
382 -309 382 -144 0 -160 -2 -196 -23 -22 -12 -47 -33 -56 -47 -10 -14 -53
-153 -96 -309 -53 -192 -80 -276 -84 -260 l-6 24 -156 -4 c-156 -4 -157 -3
-181 21 -30 30 -43 122 -33 225 11 106 6 103 160 103 98 0 141 4 163 15 29 14
30 18 40 112 7 63 7 102 1 110 -5 6 -33 17 -61 23 -68 15 -300 22 -357 10z
m348 -30 c59 -13 59 -13 46 -139 l-7 -61 -146 0 c-173 0 -184 -4 -200 -80 -14
-65 -14 -185 0 -250 17 -78 29 -83 211 -79 l153 4 8 -84 c5 -46 6 -89 3 -96
-14 -39 -366 -55 -456 -21 -81 30 -116 61 -149 128 -41 85 -55 176 -48 317 9
191 52 288 150 335 30 15 77 31 104 36 60 11 260 5 331 -10z m1472 9 c144 -23
210 -96 210 -231 0 -38 -6 -83 -14 -101 -17 -43 -68 -85 -111 -93 -36 -6 -39
-24 -5 -24 11 0 35 -15 53 -34 30 -30 38 -51 70 -180 21 -80 37 -150 37 -156
0 -6 -49 -10 -133 -10 l-134 0 -27 133 c-36 171 -40 177 -116 177 l-60 0 0
-155 0 -155 -130 0 -130 0 2 413 3 412 65 6 c115 10 353 9 420 -2z m-786 -21
c21 -19 43 -84 132 -403 59 -209 109 -386 111 -392 4 -10 -26 -13 -129 -13
l-134 0 -19 90 -19 90 -116 0 -115 0 -20 -88 -20 -87 -133 -3 c-127 -2 -133
-2 -128 16 4 10 54 187 111 393 89 314 110 378 131 397 24 21 34 22 174 22
140 0 150 -1 174 -22z"/>
<path d="M2390 1315 l0 -85 70 0 c88 0 110 17 110 85 0 68 -22 85 -110 85
l-70 0 0 -85z m105 29 c10 -11 15 -29 13 -53 -3 -35 -4 -36 -50 -39 l-48 -3 0
55 0 56 34 0 c19 0 42 -7 51 -16z"/>
<path d="M1622 1257 c-12 -61 -25 -122 -28 -134 -6 -22 -4 -23 66 -23 70 0 72
1 66 23 -3 12 -16 73 -28 134 -17 84 -27 113 -38 113 -11 0 -21 -29 -38 -113z
m32 -109 c5 -24 3 -28 -14 -28 -22 0 -23 3 -14 50 7 34 16 27 28 -22z"/>
<path d="M3812 1590 c-69 -15 -157 -59 -195 -98 -74 -76 -101 -188 -96 -392
l4 -130 -140 0 c-77 0 -146 4 -152 8 -10 6 -13 83 -15 307 l-3 300 -134 3
c-106 2 -142 -1 -168 -13 l-33 -16 0 -352 c0 -392 2 -403 69 -460 53 -44 95
-50 327 -44 260 7 276 12 285 98 3 30 6 48 7 41 1 -7 20 -32 43 -57 58 -63
124 -86 264 -92 132 -6 224 6 303 42 139 62 191 176 192 415 l0 95 19 -40 c34
-74 92 -115 261 -186 l104 -44 -149 -3 c-185 -3 -211 -12 -219 -75 -3 -23 -7
-69 -8 -101 l-3 -60 42 -12 c107 -31 339 -43 449 -23 76 14 158 54 194 96 36
40 50 89 50 173 0 85 -14 133 -53 176 -43 50 -83 73 -222 130 l-120 49 145 3
c212 4 217 7 223 161 l2 64 -37 13 c-99 34 -332 44 -451 19 -37 -8 -91 -27
-119 -42 -71 -38 -98 -84 -107 -175 l-7 -73 -7 45 c-19 111 -84 196 -177 231
-44 17 -83 22 -190 25 -74 2 -154 -1 -178 -6z m346 -35 c80 -24 135 -83 164
-177 20 -63 23 -94 23 -223 0 -129 -3 -160 -23 -223 -30 -96 -84 -153 -169
-179 -81 -25 -294 -25 -376 0 -138 43 -197 162 -197 402 0 207 47 331 144 382
84 44 317 54 434 18z m839 0 l73 -17 -5 -36 c-2 -20 -7 -58 -10 -84 l-6 -48
-173 0 c-135 0 -176 -3 -185 -14 -21 -25 0 -44 77 -76 280 -113 331 -167 320
-332 -8 -109 -54 -172 -147 -198 -94 -27 -306 -22 -461 11 l-45 10 7 77 c3 42
7 83 7 90 1 9 43 12 175 12 96 0 181 3 190 6 19 7 21 38 4 51 -7 5 -53 27
-103 48 -241 101 -285 146 -285 288 0 144 58 206 215 231 61 9 282 -2 352 -19z
m-1797 -283 c0 -218 3 -301 12 -310 8 -8 59 -12 164 -12 l151 0 7 -92 c5 -67
4 -93 -5 -99 -17 -10 -284 -22 -384 -17 -70 4 -90 9 -125 32 -78 51 -80 62
-80 454 l0 342 130 0 130 0 0 -298z"/>
<path d="M3895 1368 c-29 -26 -45 -99 -45 -213 0 -167 30 -235 105 -235 98 0
118 39 118 235 0 158 -13 208 -58 225 -44 17 -92 12 -120 -12z m70 -30 c34
-16 46 -64 46 -198 0 -175 -12 -208 -71 -195 -52 11 -64 49 -65 205 0 186 17
222 90 188z"/>
</g>
</svg>
